<?xml version="1.0" standalone="no"?>
<!DOCTYPE svg PUBLIC "-//W3C//DTD SVG 20010904//EN"
 "http://www.w3.org/TR/2001/REC-SVG-20010904/DTD/svg10.dtd">
<svg version="1.0" xmlns="http://www.w3.org/2000/svg"
 width="1194.000000pt" height="1078.000000pt" viewBox="0 0 1194.000000 1078.000000"
 preserveAspectRatio="xMidYMid meet">

<g transform="translate(0.000000,1078.000000) scale(0.100000,-0.100000)"
fill="#000000" stroke="none">
<path d="M5209 10725 c0 -27 -4 -145 -8 -260 -7 -197 -9 -215 -33 -267 -79
-171 -250 -348 -428 -442 -36 -19 -144 -65 -240 -102 -692 -266 -1013 -462
-1227 -751 -34 -45 -63 -87 -65 -92 -1 -6 -47 -22 -100 -35 -193 -49 -377
-141 -577 -290 -139 -104 -414 -381 -613 -616 -359 -426 -515 -522 -826 -507
-100 5 -158 16 -397 75 -192 47 -282 66 -286 58 -18 -29 -399 -1370 -392
-1376 4 -4 96 -44 203 -90 321 -136 432 -203 531 -322 121 -146 151 -249 199
-702 37 -350 61 -524 101 -721 60 -301 159 -533 291 -682 l45 -50 6 -99 c18
-316 140 -608 457 -1094 140 -214 170 -268 194 -349 43 -144 -2 -425 -94 -587
-16 -29 -92 -140 -168 -246 -76 -106 -141 -198 -145 -205 -5 -7 218 -178 628
-483 350 -259 641 -473 648 -476 7 -2 88 80 186 191 96 107 197 213 225 234
156 120 386 175 635 151 142 -14 170 -20 546 -113 419 -105 520 -120 775 -121
152 0 228 4 295 16 130 25 258 64 351 107 l81 38 73 -29 c159 -63 362 -98 570
-98 228 0 410 30 870 145 338 84 375 90 570 89 137 -1 179 -4 244 -22 189 -52
255 -99 484 -344 102 -109 189 -198 194 -198 6 0 1261 886 1297 916 2 2 -66
101 -152 221 -85 120 -167 243 -182 273 -105 208 -133 477 -65 635 11 25 76
130 144 233 236 355 345 557 416 770 49 148 71 252 78 371 l5 94 62 77 c209
259 291 561 385 1423 18 158 41 318 54 371 40 157 109 270 227 372 83 71 165
115 414 226 126 56 232 103 234 105 2 1 -19 80 -47 175 -28 95 -87 308 -132
473 -108 399 -200 718 -208 727 -4 4 -126 -22 -272 -57 -331 -81 -439 -94
-568 -73 -98 17 -203 60 -289 120 -79 53 -208 184 -342 343 -163 194 -284 328
-396 439 -280 277 -564 451 -852 520 -70 17 -72 19 -114 79 -58 82 -157 185
-248 259 -194 156 -416 275 -961 515 -129 57 -262 120 -295 140 -185 113 -342
276 -411 427 -25 54 -26 70 -34 293 -5 129 -10 237 -12 238 -2 2 -348 5 -770
7 l-768 4 -1 -51z m1086 -165 l252 0 7 -150 c7 -157 19 -207 69 -306 72 -142
246 -325 415 -438 107 -71 152 -94 447 -222 383 -166 638 -300 803 -423 99
-73 239 -224 287 -308 l40 -70 110 -22 c374 -74 679 -302 1157 -866 102 -121
212 -245 244 -276 243 -234 501 -332 793 -300 58 7 189 32 290 57 101 24 186
42 189 40 2 -3 55 -193 118 -423 63 -230 126 -456 140 -503 13 -47 21 -86 17
-88 -66 -23 -335 -154 -399 -194 -156 -98 -280 -229 -351 -373 -66 -132 -93
-248 -123 -525 -77 -722 -134 -1008 -242 -1225 -41 -82 -106 -171 -164 -226
l-49 -45 -2 -111 c-6 -317 -113 -576 -441 -1073 -212 -322 -236 -381 -236
-590 0 -141 19 -254 64 -386 39 -114 89 -205 199 -358 51 -70 91 -129 89 -130
-2 -2 -223 -159 -491 -349 l-489 -347 -75 82 c-206 223 -314 304 -491 364
-142 49 -277 67 -442 60 -172 -7 -270 -24 -560 -97 -466 -119 -554 -133 -815
-134 -165 0 -228 4 -292 18 -105 22 -222 62 -297 99 l-58 29 -102 -50 c-113
-56 -211 -90 -337 -117 -66 -15 -126 -19 -284 -18 -247 0 -334 14 -773 124
-361 92 -477 111 -657 112 -213 1 -371 -33 -525 -113 -108 -56 -199 -133 -323
-272 -59 -67 -112 -122 -117 -122 -5 0 -221 158 -481 350 -260 193 -476 353
-482 356 -5 4 37 71 93 150 109 153 123 177 164 279 79 190 107 452 67 610
-30 118 -64 185 -193 383 -349 534 -454 788 -461 1113 l-3 114 -36 30 c-51 42
-124 142 -168 230 -110 219 -158 451 -230 1100 -22 201 -49 402 -60 448 -43
179 -126 328 -251 447 -127 122 -210 172 -438 271 -103 44 -146 68 -145 79 1
8 66 237 145 508 l143 493 200 -49 c173 -41 220 -49 336 -54 219 -9 374 32
546 146 125 83 232 187 414 401 348 410 549 599 786 739 134 79 312 142 443
158 46 5 56 10 70 36 185 341 483 542 1220 824 107 40 226 91 265 111 222 116
441 346 528 552 33 81 48 183 48 344 l0 109 317 -6 c174 -4 430 -7 568 -7z"/>
<path d="M5627 10253 c-14 -221 -172 -489 -412 -696 -167 -145 -260 -196 -586
-323 -578 -224 -839 -376 -993 -577 -45 -60 -115 -189 -139 -258 -4 -13 -27
-17 -109 -22 -366 -22 -656 -226 -1149 -808 -327 -386 -537 -542 -834 -620
-78 -21 -113 -24 -265 -24 -148 0 -192 4 -285 24 -146 32 -147 32 -157 -4 -12
-40 -139 -524 -145 -552 -4 -19 7 -28 88 -69 388 -194 604 -460 687 -844 12
-52 28 -160 37 -240 88 -810 125 -1010 225 -1216 40 -82 60 -111 114 -161 36
-34 81 -67 101 -74 l36 -13 -8 -76 c-18 -178 1 -332 64 -500 64 -172 145 -318
382 -685 205 -319 227 -389 218 -679 -9 -279 -76 -501 -213 -707 -28 -43 -43
-74 -37 -80 5 -5 145 -107 311 -227 l303 -219 87 86 c186 184 413 292 691 332
108 15 416 6 536 -16 50 -9 203 -45 340 -80 439 -111 574 -135 776 -135 251 0
459 63 643 194 l61 44 35 -25 c60 -42 181 -99 265 -126 125 -39 226 -50 408
-44 195 6 287 22 685 121 386 96 472 110 692 110 383 0 648 -100 898 -338 70
-68 97 -88 108 -80 75 50 606 429 610 436 3 4 -15 39 -39 76 -63 95 -103 178
-142 295 -53 161 -66 237 -72 423 -6 184 6 280 48 387 11 29 94 162 184 297
185 279 270 422 332 563 100 227 127 405 97 634 l-6 42 48 22 c67 31 152 120
196 206 97 184 150 440 218 1052 17 151 35 304 40 340 30 191 118 411 218 541
115 151 276 280 480 383 86 44 102 55 99 72 -15 63 -130 507 -143 546 l-14 45
-101 -22 c-310 -70 -564 -47 -814 75 -194 94 -351 231 -582 506 -337 401 -529
584 -742 709 -145 85 -274 125 -428 133 -73 4 -113 10 -113 17 0 6 -23 58 -51
115 -44 91 -63 117 -143 196 -166 167 -425 311 -986 550 -187 80 -251 113
-371 194 -234 157 -411 354 -510 565 -43 93 -58 144 -67 230 l-7 61 -346 3
-346 2 -6 -87z m417 -1004 c52 -145 97 -272 101 -281 6 -16 34 -18 332 -20
l326 -3 -262 -174 c-229 -153 -261 -177 -255 -195 4 -12 48 -138 99 -281 51
-143 92 -261 90 -263 -2 -2 -121 75 -265 171 l-262 175 -161 -106 c-89 -58
-209 -136 -265 -174 -57 -38 -105 -68 -106 -66 -2 2 41 127 96 278 54 151 97
279 94 285 -2 6 -117 85 -255 175 -138 91 -251 168 -251 172 0 4 145 9 321 10
l322 3 100 282 c56 155 102 281 104 280 1 -2 45 -122 97 -268z m451 -1649
c206 -46 346 -153 384 -294 l10 -38 -30 6 c-53 10 -199 84 -300 151 -85 57
-199 164 -199 187 0 13 38 9 135 -12z m662 -131 c181 -68 307 -221 347 -421
17 -83 21 -198 8 -198 -5 0 -30 14 -55 31 -146 97 -377 455 -377 587 0 27 5
27 77 1z m-1432 -21 c56 -44 80 -142 51 -212 -17 -40 -60 -76 -92 -76 -44 0
-103 104 -104 183 0 46 13 74 48 104 34 29 62 29 97 1z m-190 -5 c-37 -86 -28
-171 26 -250 17 -24 29 -46 27 -47 -1 -2 -46 -13 -98 -26 -204 -49 -430 -133
-683 -253 l-138 -66 -41 15 c-71 25 -108 61 -144 141 -19 41 -34 83 -34 93 0
30 101 104 225 164 194 95 454 176 711 220 76 14 143 25 148 25 4 1 5 -7 1
-16z m714 -108 c72 -17 198 -75 280 -128 l55 -35 -57 -7 c-134 -17 -456 29
-541 78 -51 28 -53 38 -14 61 78 46 168 56 277 31z m-308 -134 c129 -94 419
-125 712 -77 l88 15 155 -94 156 -93 -53 -4 c-44 -2 -57 1 -76 18 -25 23 -95
45 -208 66 -80 15 -638 19 -652 4 -12 -13 105 -115 194 -169 100 -60 201 -96
313 -110 128 -16 230 5 375 78 62 31 123 55 140 55 48 0 206 -101 363 -233
119 -100 118 -111 -5 -50 -148 73 -256 97 -410 91 -87 -4 -138 -12 -193 -30
l-75 -24 74 -72 c135 -132 293 -222 473 -268 46 -12 116 -17 255 -19 l192 -2
55 -42 c152 -117 262 -290 281 -441 l6 -55 -31 64 c-72 150 -195 280 -328 349
-77 40 -211 87 -267 94 -28 3 -30 1 -26 -27 7 -62 54 -202 91 -275 65 -124
160 -226 296 -318 11 -7 0 -3 -23 8 -74 35 -80 31 -88 -58 -30 -345 177 -765
365 -739 l38 5 27 -76 c36 -101 32 -192 -13 -302 -28 -71 -30 -73 -37 -45 -48
215 -124 380 -256 555 -50 66 -94 120 -99 120 -14 0 -44 -64 -70 -145 -31 -99
-38 -264 -16 -376 31 -153 105 -296 208 -405 l50 -53 -12 -53 c-20 -86 -55
-163 -111 -243 -28 -42 -55 -77 -58 -80 -4 -2 3 36 16 83 43 168 26 358 -45
499 -32 63 -106 163 -121 163 -13 0 -66 -132 -92 -230 -19 -71 -23 -111 -23
-240 -1 -170 10 -232 66 -368 l30 -72 -88 -98 c-48 -53 -98 -108 -112 -122
l-23 -25 26 60 c40 92 74 217 81 303 6 76 -9 219 -25 235 -4 4 -35 -21 -68
-57 -155 -165 -249 -307 -309 -464 -76 -203 -133 -300 -226 -388 -35 -34 -55
-44 -113 -57 l-70 -15 30 21 c237 172 371 401 392 667 6 82 6 82 -16 75 -40
-12 -165 -87 -238 -142 -177 -133 -283 -309 -312 -519 -6 -43 -12 -79 -14 -80
-1 -1 -130 -19 -287 -41 -157 -22 -284 -44 -284 -49 1 -5 5 -28 9 -51 l7 -43
-40 0 -39 0 -7 50 c-8 59 -20 90 -58 146 -39 60 -66 73 -202 101 -235 48 -571
173 -838 310 -112 58 -108 58 -181 28 -17 -7 -17 -6 0 23 21 37 36 13 -151
229 -231 265 -393 497 -516 735 -42 81 -61 108 -79 113 l-24 6 27 28 26 28
-12 99 c-25 207 -14 812 18 990 4 24 0 38 -23 64 -15 19 -23 31 -17 27 6 -3
26 -2 45 3 27 8 41 22 68 67 79 134 244 375 320 465 93 110 184 197 288 271
39 29 74 60 77 71 5 18 2 28 -28 98 l-16 38 55 -27 54 -27 158 77 c312 151
601 247 878 292 56 9 118 75 136 144 l13 50 17 -29 c10 -16 37 -43 60 -59z
m1394 -315 c49 -34 92 -63 96 -66 3 -3 9 -18 13 -33 6 -26 3 -25 -59 28 -36
30 -100 81 -143 112 -42 31 -81 61 -87 66 -17 18 86 -44 180 -107z m-615 70
c116 -19 206 -44 194 -56 -5 -5 -41 -21 -79 -36 -151 -58 -341 -41 -522 46
-133 63 -117 70 137 65 96 -2 218 -11 270 -19z m1182 -66 c23 -25 58 -81 79
-125 53 -109 72 -205 66 -325 -5 -90 -22 -170 -37 -170 -10 0 -210 656 -210
690 0 19 59 -21 102 -70z m-3469 2 c57 -38 77 -70 98 -154 15 -59 16 -74 5
-80 -85 -48 -264 -216 -370 -348 -67 -83 -219 -307 -287 -422 l-34 -58 -61 0
c-84 0 -161 25 -201 65 -27 27 -33 40 -33 77 0 151 203 481 438 715 95 94 176
158 269 211 69 39 112 37 176 -6z m2698 -292 c251 -51 566 -177 532 -211 -16
-16 -145 -26 -219 -18 -111 12 -190 36 -299 89 -91 44 -205 128 -205 151 0 15
86 10 191 -11z m707 -176 c31 -41 45 -104 22 -104 -15 0 -68 77 -111 162 -21
43 -39 80 -39 82 0 7 92 -94 128 -140z m496 -37 c123 -150 127 -407 9 -604
-20 -35 -40 -63 -44 -63 -7 0 -22 36 -39 95 -17 59 -25 415 -11 504 12 75 25
111 41 111 5 0 25 -19 44 -43z m-712 -270 c164 -113 418 -377 451 -469 10 -28
-29 -22 -108 16 -111 53 -212 141 -302 261 -73 98 -130 225 -101 225 7 -1 34
-15 60 -33z m-3963 -338 c30 -6 64 -23 87 -43 l38 -33 -13 -139 c-21 -222 -25
-519 -11 -729 20 -289 27 -255 -55 -286 -99 -39 -196 -54 -232 -37 -35 17 -59
80 -79 212 -23 146 -14 598 15 785 25 161 45 235 71 261 23 23 97 27 179 9z
m4973 -219 c-1 -122 -44 -251 -124 -367 -40 -59 -113 -142 -104 -118 67 166
169 507 182 608 l7 52 20 -45 c15 -34 20 -66 19 -130z m-603 -11 c47 -16 93
-29 103 -29 52 0 103 -296 96 -555 l-3 -120 -17 37 c-12 24 -18 61 -18 107 0
230 -108 459 -280 595 l-35 27 35 -17 c19 -9 72 -30 119 -45z m-164 -54 c104
-109 260 -427 266 -540 3 -68 3 -69 -45 -36 -111 77 -226 254 -261 401 -18 78
-20 210 -4 210 7 0 26 -16 44 -35z m453 -412 c-12 -11 -13 -8 -10 24 5 58 16
73 20 29 2 -24 -2 -44 -10 -53z m5 -190 c-13 -151 -36 -282 -60 -331 -14 -29
-26 -52 -28 -50 -2 2 8 57 21 123 13 66 24 153 24 193 0 64 3 76 23 93 12 10
23 18 23 19 1 0 0 -21 -3 -47z m-458 -118 c90 -184 183 -522 159 -576 -9 -19
-11 -19 -56 15 -80 61 -146 168 -189 306 -20 61 -24 97 -24 195 0 80 5 131 14
153 13 31 15 32 32 16 10 -9 39 -58 64 -109z m780 -3 c0 -100 -2 -111 -32
-172 -38 -79 -123 -175 -207 -235 -69 -49 -233 -131 -243 -122 -13 13 220 358
373 551 65 83 88 106 97 97 8 -8 12 -51 12 -119z m-4876 -303 c26 -9 39 -26
73 -93 121 -242 280 -466 544 -772 l122 -141 -17 -39 c-25 -54 -67 -102 -120
-136 -75 -47 -91 -42 -221 75 -306 275 -531 590 -636 894 -28 79 -28 84 -13
110 19 31 91 76 159 97 56 18 69 19 109 5z m3865 -162 c61 -92 75 -515 22
-642 l-12 -30 -28 60 c-66 142 -94 355 -66 485 14 60 50 150 61 150 5 0 15
-10 23 -23z m434 -289 c-34 -62 -72 -112 -107 -144 l-54 -49 65 123 c54 101
73 128 104 147 21 13 40 22 42 20 2 -2 -20 -46 -50 -97z m372 87 c0 -3 -15
-30 -34 -60 -70 -109 -207 -220 -358 -289 -82 -38 -186 -71 -196 -62 -7 8 79
90 178 169 170 137 410 278 410 242z m-5109 -260 c93 -224 240 -467 393 -650
42 -49 76 -92 76 -95 0 -7 -452 -375 -459 -375 -13 2 -158 189 -240 310 -117
173 -189 297 -271 468 -63 130 -150 337 -150 355 0 4 73 -65 163 -153 163
-162 325 -305 345 -305 6 0 22 5 36 11 23 11 24 14 19 83 -3 44 3 131 16 232
12 89 21 176 21 194 0 18 2 31 5 29 2 -3 23 -50 46 -104z m5329 -73 c12 -99
20 -212 18 -263 l-3 -89 33 -11 c25 -8 37 -8 50 2 79 61 241 208 355 323 l138
140 -30 -80 c-125 -336 -326 -689 -558 -980 -49 -61 -80 -91 -87 -86 -6 5
-110 89 -231 187 -121 98 -222 180 -224 181 -2 2 21 31 51 66 79 91 167 210
233 313 62 98 183 339 211 422 10 29 19 51 21 50 1 -1 11 -80 23 -175z m-1294
-88 c17 -89 -54 -300 -140 -419 -45 -62 -160 -179 -164 -167 -5 16 49 186 90
282 66 156 173 340 198 340 5 0 12 -16 16 -36z m414 -87 c0 -1 -24 -25 -52
-52 l-53 -50 50 53 c46 48 55 57 55 49z m-810 -77 c0 -30 -46 -123 -106 -213
-69 -105 -253 -302 -261 -280 -8 24 38 185 73 255 46 92 129 179 207 218 63
31 87 37 87 20z m660 -75 c-24 -25 -46 -45 -49 -45 -3 0 15 20 39 45 24 25 46
45 49 45 3 0 -15 -20 -39 -45z m390 -2 c-1 -20 -76 -107 -126 -147 -114 -89
-259 -141 -424 -152 l-95 -7 20 22 c56 64 326 211 485 265 73 25 140 34 140
19z m-3251 -133 c231 -115 554 -238 716 -270 92 -19 89 -17 66 -46 -45 -57
-66 -216 -42 -302 9 -29 8 -32 -7 -28 -9 3 -82 21 -162 42 -354 90 -612 205
-848 378 l-83 61 6 39 c10 70 72 156 130 183 46 20 95 8 224 -57z m-800 -381
l95 -99 -29 -30 c-16 -16 -33 -30 -38 -30 -6 0 -54 44 -109 98 l-99 97 38 32
c21 18 40 32 43 32 3 -1 47 -46 99 -100z m4140 61 c13 -11 21 -26 18 -33 -3
-7 -48 -53 -101 -101 l-95 -88 -36 28 -36 27 23 26 c12 14 56 61 97 103 79 82
79 82 130 38z m-665 -50 c32 -5 61 -12 64 -15 10 -10 -29 -43 -88 -74 -104
-55 -258 -75 -396 -50 -74 13 -194 49 -194 59 0 4 23 14 51 23 156 51 432 79
563 57z m-3415 -335 c415 -336 928 -561 1474 -647 124 -19 181 -22 452 -23
323 0 369 4 617 51 564 108 1109 394 1533 805 l113 109 228 -186 c126 -102
231 -188 233 -190 8 -8 -108 -130 -223 -234 -607 -547 -1298 -857 -2121 -952
-141 -16 -605 -16 -750 0 -856 97 -1598 446 -2204 1038 l-144 140 233 191 234
191 116 -109 c63 -59 157 -142 209 -184z"/>
<path d="M5185 7334 c-218 -59 -429 -142 -562 -220 -45 -26 -46 -30 -10 -79
14 -19 18 -18 123 37 133 68 265 118 438 165 72 20 133 37 134 39 9 7 -11 84
-21 83 -7 0 -52 -11 -102 -25z"/>
<path d="M5406 6800 c-107 -23 -227 -62 -315 -101 -35 -16 -67 -29 -71 -29 -4
0 -15 27 -25 60 -10 33 -21 60 -25 60 -4 0 -25 -48 -46 -107 -34 -93 -48 -117
-112 -192 -133 -157 -202 -335 -202 -526 0 -285 108 -559 319 -812 104 -124
283 -243 431 -287 75 -23 231 -46 308 -46 56 0 62 2 62 20 0 16 5 19 24 14 22
-5 24 -2 31 45 10 73 -2 162 -36 265 -42 126 -78 190 -201 353 -205 273 -237
402 -144 578 104 199 353 302 567 235 112 -35 116 -39 193 -213 75 -171 72
-168 146 -142 23 8 46 15 50 15 21 0 99 -184 184 -436 52 -153 103 -299 114
-324 l20 -45 5 35 c3 19 13 192 22 385 9 192 17 350 18 351 1 2 170 -14 375
-35 204 -20 372 -34 372 -30 0 4 -42 34 -94 68 -113 73 -327 182 -486 246 -63
26 -137 59 -165 73 -50 25 -224 141 -279 185 l-29 24 66 23 c37 13 67 26 67
29 0 4 -81 28 -180 54 -138 37 -194 57 -243 87 -78 47 -160 82 -258 111 -109
31 -340 36 -463 9z m401 -66 c157 -32 333 -126 558 -295 230 -174 310 -221
482 -290 93 -37 355 -161 350 -166 -2 -2 -122 9 -266 23 -204 21 -265 24 -271
15 -4 -7 -10 -94 -14 -194 -4 -100 -9 -209 -13 -241 l-6 -59 -57 164 c-70 203
-102 272 -181 382 -199 280 -437 393 -693 327 -166 -42 -284 -137 -358 -287
-43 -86 -43 -87 -43 -197 0 -108 1 -113 38 -190 20 -43 57 -107 81 -141 l44
-63 -56 -34 c-105 -62 -159 -169 -149 -296 4 -50 15 -86 50 -156 25 -50 44
-92 43 -93 -1 -2 -38 15 -82 36 -97 47 -189 116 -248 184 l-44 52 5 197 c6
215 3 242 -50 373 l-32 80 -6 -135 c-4 -74 -12 -155 -19 -180 -15 -56 -37
-100 -50 -100 -18 0 -82 143 -107 239 -34 131 -43 327 -19 433 20 92 68 193
129 274 69 91 174 185 244 218 l62 29 58 -29 c91 -45 82 -88 -36 -174 -33 -24
-59 -46 -57 -47 6 -6 127 42 202 80 69 34 124 84 124 111 0 24 -41 66 -88 90
-55 28 -54 29 74 56 114 24 297 26 401 4z m-278 -1304 c39 -43 114 -173 144
-250 32 -83 50 -183 42 -236 -5 -39 -9 -42 -42 -49 -58 -11 -180 5 -208 26
-34 28 -110 146 -129 202 -9 26 -16 78 -16 115 0 164 127 281 209 192z"/>
<path d="M5532 5218 c-19 -19 -14 -63 8 -83 46 -41 116 29 75 75 -20 22 -64
27 -83 8z"/>
<path d="M5708 5580 c12 -29 58 -80 160 -177 78 -75 141 -137 139 -139 -2 -2
-52 14 -112 36 -59 22 -113 40 -119 40 -6 -1 27 -37 74 -80 46 -44 80 -80 76
-80 -5 0 -40 9 -78 21 -38 11 -74 19 -79 17 -5 -2 28 -48 74 -103 74 -89 85
-108 101 -169 9 -38 15 -70 12 -73 -2 -2 -36 12 -76 32 l-72 36 7 -43 c4 -24
10 -46 14 -50 3 -3 40 -16 81 -28 67 -20 81 -29 137 -85 l61 -64 -36 -25 c-35
-23 -42 -24 -117 -17 -74 7 -86 11 -165 62 -74 47 -91 54 -127 51 -24 -2 -43
-7 -43 -11 0 -4 53 -44 118 -88 113 -78 120 -81 226 -104 76 -16 115 -29 128
-43 l19 -21 -126 -3 -126 -3 -107 95 c-91 81 -112 96 -142 96 l-35 0 105 -105
105 -105 -46 0 c-44 0 -50 4 -229 159 -179 157 -183 159 -206 144 -13 -8 -24
-19 -24 -22 0 -4 85 -88 188 -187 l189 -179 119 -33 119 -33 253 1 252 0 0
-22 c0 -13 3 -33 6 -45 6 -21 3 -23 -40 -23 -25 0 -46 -2 -46 -5 0 -3 11 -28
25 -55 14 -27 25 -51 25 -54 0 -2 -18 -2 -40 1 -22 3 -40 3 -40 0 0 -4 14 -22
31 -42 18 -20 29 -38 27 -41 -3 -3 -38 -8 -77 -11 -39 -3 -74 -9 -76 -13 -2
-4 23 -15 55 -25 33 -10 60 -21 60 -24 0 -3 -18 -24 -41 -47 l-40 -41 -66 14
c-36 7 -68 11 -71 8 -3 -3 12 -23 33 -45 21 -22 37 -41 34 -44 -2 -2 -22 -12
-43 -23 -37 -19 -44 -19 -113 -6 -41 8 -80 12 -85 11 -6 -2 8 -18 31 -35 l42
-31 -255 -7 -255 -7 -60 53 c-75 68 -146 111 -265 160 -73 30 -100 37 -118 30
-41 -15 -51 -36 -46 -92 l5 -51 -36 6 c-46 7 -108 -9 -120 -32 -29 -54 77
-101 379 -167 97 -22 132 -34 156 -55 156 -135 519 -214 759 -165 92 19 137
38 196 81 30 22 58 34 78 34 55 0 123 21 221 67 73 35 109 60 159 110 35 35
80 72 100 83 176 91 249 375 161 629 -16 48 -30 108 -30 132 0 92 -87 224
-252 385 -166 162 -353 287 -478 321 -20 6 -156 97 -304 202 -148 106 -275
195 -282 198 -10 4 -9 -6 4 -37z m568 -426 c99 -23 144 -48 144 -82 0 -49 -19
-97 -51 -130 l-31 -32 28 0 c32 0 84 28 126 67 26 25 26 25 37 5 16 -30 14
-58 -9 -102 -27 -52 -25 -60 10 -60 28 0 78 21 123 53 15 10 24 5 67 -43 71
-78 74 -85 49 -109 -12 -11 -41 -27 -63 -34 l-41 -14 48 -8 c27 -4 68 -5 91
-2 l42 6 41 -83 41 -83 -75 -11 c-98 -16 -210 -54 -301 -103 -41 -21 -77 -39
-82 -39 -5 0 -23 24 -40 53 -60 97 -163 221 -281 337 -112 111 -117 117 -134
181 -16 62 -16 68 0 99 24 46 95 121 130 136 39 17 51 17 131 -2z m694 -797
c86 -175 53 -364 -92 -522 l-60 -65 -66 69 c-73 75 -162 137 -247 172 -31 13
-54 25 -52 28 37 65 50 113 51 183 l1 77 150 45 c127 38 250 72 277 75 4 1 21
-27 38 -62z m-448 -419 c78 -40 238 -176 238 -202 0 -17 -96 -80 -165 -109
-33 -13 -106 -39 -162 -56 -97 -30 -104 -31 -127 -16 -24 16 -106 117 -106
131 0 3 33 41 73 83 39 43 89 108 111 144 21 37 43 67 48 67 6 0 46 -19 90
-42z m-337 -328 c21 -28 53 -62 73 -75 l35 -24 -29 -12 c-159 -63 -369 -85
-508 -54 -86 19 -228 86 -294 139 l-43 35 183 -6 c188 -6 363 6 468 31 30 8
60 14 67 15 6 1 28 -22 48 -49z"/>
<path d="M4078 6662 c-188 -204 -277 -320 -367 -476 l-51 -89 35 -24 c19 -13
38 -23 42 -23 4 0 35 46 68 101 79 134 200 287 345 441 66 69 120 129 120 133
0 9 -51 75 -59 75 -3 0 -63 -62 -133 -138z"/>
<path d="M3486 5592 c-11 -37 -46 -305 -57 -437 -10 -128 -7 -333 8 -412 5
-32 7 -33 55 -33 41 0 49 3 44 16 -3 8 -9 77 -12 152 -7 152 6 351 36 544 11
68 20 130 20 140 0 10 -16 21 -45 31 -41 14 -45 14 -49 -1z"/>
<path d="M3663 4194 c-18 -8 -33 -17 -33 -20 0 -3 28 -53 62 -112 127 -221
291 -445 415 -565 l49 -47 33 34 33 34 -66 68 c-127 135 -278 347 -386 542
-26 48 -51 81 -60 81 -8 0 -30 -7 -47 -15z"/>
<path d="M4547 3164 c-16 -19 -27 -37 -25 -39 18 -19 275 -162 393 -221 150
-73 385 -160 410 -150 12 4 41 74 33 81 -1 1 -58 21 -126 44 -146 48 -338 140
-514 245 -70 42 -131 76 -135 76 -4 0 -21 -16 -36 -36z"/>
<path d="M3620 2545 l-114 -114 24 -26 24 -25 36 35 c28 28 44 35 74 35 34 0
38 -2 34 -22 -3 -13 -11 -51 -19 -85 l-13 -63 29 -30 30 -31 7 23 c3 13 14 67
23 121 l17 97 92 0 91 0 -35 34 -35 33 -98 -6 c-53 -3 -97 -5 -97 -3 0 2 21
25 46 53 46 48 46 50 29 69 -10 11 -21 20 -24 20 -4 0 -58 -52 -121 -115z"/>
<path d="M8110 2604 c-92 -40 -131 -124 -96 -207 20 -49 96 -114 143 -121 107
-19 211 88 188 192 -14 64 -119 152 -180 151 -11 0 -36 -7 -55 -15z m126 -98
c36 -35 44 -50 44 -80 0 -73 -78 -110 -142 -68 -73 48 -92 119 -43 167 40 41
88 34 141 -19z"/>
<path d="M7888 2416 c-10 -7 -18 -16 -18 -20 0 -4 34 -51 75 -103 77 -99 86
-121 59 -144 -13 -11 -21 -11 -44 3 -27 15 -29 15 -50 -7 l-21 -23 27 -21 c43
-34 89 -28 135 18 45 45 49 70 16 122 -35 58 -141 188 -152 188 -5 0 -18 -6
-27 -13z"/>
<path d="M3891 2312 c-83 -48 -151 -90 -151 -94 0 -4 11 -15 25 -24 23 -15 27
-15 58 4 l34 20 53 -40 c53 -42 57 -51 36 -108 -6 -18 42 -57 54 -44 6 7 100
314 100 327 0 2 -13 13 -29 24 l-28 22 -152 -87z m126 -16 c-3 -8 -11 -32 -18
-55 -7 -23 -15 -41 -19 -41 -3 0 -21 11 -38 24 l-33 24 48 30 c54 34 68 38 60
18z"/>
<path d="M4114 2148 c-44 -72 -80 -135 -82 -139 -2 -4 37 -30 86 -58 105 -60
148 -66 189 -25 23 23 25 31 20 75 -5 43 -4 49 12 49 42 0 70 64 47 108 -14
28 -156 122 -183 122 -6 0 -46 -59 -89 -132z m174 22 c43 -31 51 -47 30 -68
-18 -18 -36 -15 -85 14 l-43 25 17 30 c22 36 30 36 81 -1z m-35 -138 c22 -24
15 -58 -13 -67 -19 -6 -120 40 -120 54 0 3 9 21 20 39 l20 32 37 -19 c21 -10
46 -28 56 -39z"/>
<path d="M7645 2242 c-100 -56 -136 -82 -128 -95 4 -7 45 -69 90 -140 l84
-127 30 15 c32 17 32 16 -13 82 -32 48 -34 58 -12 67 28 11 54 6 116 -20 52
-22 65 -24 90 -13 15 6 31 16 34 20 7 12 -114 69 -144 69 l-23 0 20 26 c30 38
26 71 -13 110 -41 41 -65 42 -131 6z m91 -66 c8 -32 1 -41 -49 -73 l-41 -26
-23 29 c-13 16 -23 32 -23 35 0 14 77 58 102 58 21 1 29 -5 34 -23z"/>
<path d="M4417 2023 c-66 -135 -68 -171 -14 -218 21 -18 57 -38 80 -44 79 -23
115 9 186 163 23 49 41 92 41 95 0 4 -13 11 -28 17 l-29 11 -56 -113 c-55
-111 -58 -114 -90 -114 -33 0 -77 33 -77 58 0 6 23 59 50 118 28 59 49 108 48
109 -8 6 -48 25 -53 25 -3 0 -29 -48 -58 -107z"/>
<path d="M7345 2078 c-11 -6 -21 -12 -23 -14 -4 -2 30 -347 34 -352 1 -2 16 4
34 13 29 15 31 19 25 55 l-7 39 62 31 62 31 29 -27 c26 -25 30 -26 59 -14 17
7 29 16 28 21 -6 15 -258 229 -270 229 -7 0 -22 -6 -33 -12z m130 -148 c3 -5
-12 -18 -33 -29 l-39 -20 -7 46 c-10 76 -9 77 34 43 22 -17 42 -35 45 -40z"/>
<path d="M4696 1847 c-52 -140 -55 -153 -39 -164 33 -25 48 -15 68 42 10 30
19 55 20 55 2 0 22 -7 45 -15 82 -29 138 -17 165 35 19 36 19 63 0 99 -14 28
-41 43 -151 81 l-51 18 -57 -151z m172 46 c30 -18 36 -36 22 -62 -12 -23 -41
-27 -89 -10 -35 13 -36 17 -16 65 16 38 32 40 83 7z"/>
<path d="M7083 1970 c-81 -19 -133 -78 -133 -151 0 -44 46 -137 81 -162 86
-62 235 -4 255 99 14 75 -50 193 -113 208 -16 4 -35 8 -43 10 -8 2 -29 0 -47
-4z m61 -64 c37 -15 76 -82 76 -130 0 -39 -49 -86 -90 -86 -66 0 -127 101
-104 169 5 14 25 34 44 43 42 21 34 21 74 4z"/>
<path d="M4981 1755 c-56 -75 -99 -139 -97 -144 3 -5 17 -11 31 -14 20 -3 31
2 48 24 24 33 34 35 105 14 46 -14 52 -19 52 -43 0 -15 4 -32 8 -39 8 -12 62
-36 68 -30 2 2 -6 81 -18 176 -21 164 -23 173 -46 182 -13 5 -29 9 -36 9 -8 0
-59 -61 -115 -135z m128 -37 l1 -36 -37 10 c-21 5 -40 12 -41 13 -2 2 11 25
29 52 32 46 33 47 40 23 4 -14 7 -42 8 -62z"/>
<path d="M6707 1860 c-38 -10 -71 -21 -74 -24 -6 -6 71 -303 81 -313 2 -2 41
6 87 18 110 30 140 57 147 131 8 106 -62 209 -143 207 -16 0 -61 -8 -98 -19z
m137 -70 c26 -32 42 -103 32 -144 -4 -18 -18 -29 -57 -41 -27 -9 -52 -15 -54
-14 -9 10 -55 193 -51 205 5 13 30 20 78 23 18 1 34 -8 52 -29z"/>
<path d="M5220 1815 c0 -20 6 -25 38 -30 20 -4 42 -8 48 -10 8 -2 4 -44 -11
-137 -13 -73 -22 -133 -21 -134 0 -1 15 -4 33 -7 36 -7 33 -15 59 151 l18 112
50 -2 c46 -3 51 -1 54 19 4 25 5 25 -133 48 -125 21 -135 20 -135 -10z"/>
<path d="M6524 1824 c-7 -3 -4 -37 11 -107 13 -56 28 -128 35 -159 10 -49 15
-58 33 -58 47 0 48 8 17 150 -16 74 -32 145 -35 158 -5 21 -31 28 -61 16z"/>
<path d="M5507 1733 c-4 -37 -10 -112 -13 -165 -8 -115 -19 -106 146 -110 100
-3 105 -2 108 18 4 25 -19 34 -84 34 -23 0 -56 3 -73 6 -30 6 -32 9 -29 48 l3
41 88 -4 c87 -3 87 -3 87 22 0 21 -5 25 -46 31 -26 3 -64 6 -86 6 -39 0 -39 0
-36 37 l3 37 60 -2 c33 -2 75 -5 93 -9 30 -5 32 -4 32 25 l0 30 -87 7 c-49 3
-104 8 -124 11 l-36 5 -6 -68z"/>
<path d="M6282 1780 c-38 -24 -54 -57 -43 -96 10 -40 47 -63 121 -75 82 -13
100 -28 76 -63 -24 -37 -86 -37 -115 0 -17 21 -25 25 -51 19 -35 -8 -35 -7
-15 -45 19 -38 63 -60 115 -60 83 0 142 44 142 105 0 69 -30 91 -151 112 -49
9 -76 37 -51 53 34 22 62 23 90 1 28 -20 70 -28 83 -15 9 9 -11 46 -37 66 -30
25 -121 24 -164 -2z"/>
<path d="M5995 1668 l7 -113 -73 108 c-67 100 -74 107 -105 107 l-34 0 0 -97
c0 -54 3 -128 7 -165 6 -67 6 -68 35 -68 l29 0 -3 104 c-2 57 -1 103 2 101 3
-2 35 -47 70 -99 61 -91 66 -96 100 -96 l36 0 -4 153 c-2 83 -5 158 -7 165 -3
6 -18 12 -36 12 l-31 0 7 -112z"/>
</g>
</svg>
